<svg width="500" height="500" xmlns="http://www.w3.org/2000/svg">
 <g >
  <path id="svg_3" d="m249.99998,104c-80.08503,0 -144.99998,65.36649 -144.99998,146.00003c0,80.63768 64.91495,145.99996 144.99998,145.99996c80.08128,0 145.00002,-65.36228 145.00002,-145.99996c0,-80.63353 -64.91874,-146.00003 -145.00002,-146.00003zm13.24811,230.09011l-27.00604,0l0,-26.07685l27.00604,0l0,26.07685zm0,-53.92038l0,8.61819l-27.00604,0l0,-10.61875c0,-32.04325 36.21567,-37.1282 36.21567,-59.90246c0,-10.3846 -9.22129,-18.33949 -21.29337,-18.33949c-12.50958,0 -23.48152,9.28095 -23.48152,9.28095l-15.37532,-19.2369c0,0 15.15466,-15.9142 41.27347,-15.9142c24.81023,0 47.84648,15.4698 47.84648,41.55047c0.01158,36.48473 -38.17937,40.69228 -38.17937,64.56218l0,0.00001z" stroke="#000" fill="#1fb71f"/>
 </g>

</svg>